<?xml version="1.0" encoding="UTF-8" standalone="no"?>
<!-- Created with Inkscape (http://www.inkscape.org/) -->

<svg
   xmlns:dc="http://purl.org/dc/elements/1.1/"
   xmlns:cc="http://creativecommons.org/ns#"
   xmlns:rdf="http://www.w3.org/1999/02/22-rdf-syntax-ns#"
   xmlns:svg="http://www.w3.org/2000/svg"
   xmlns="http://www.w3.org/2000/svg"
   xmlns:sodipodi="http://sodipodi.sourceforge.net/DTD/sodipodi-0.dtd"
   xmlns:inkscape="http://www.inkscape.org/namespaces/inkscape"
   width="172.29915"
   height="140.25"
   id="svg4728"
   version="1.1"
   inkscape:version="0.48.3.1 r9886"
   sodipodi:docname="quadrature_disk.svg">
  <defs
     id="defs4730">
    <marker
       inkscape:stockid="Arrow1Mend"
       orient="auto"
       refY="0"
       refX="0"
       id="Arrow1Mend"
       style="overflow:visible">
      <path
         id="path3813"
         d="M 0,0 5,-5 -12.5,0 5,5 0,0 z"
         style="fill-rule:evenodd;stroke:#000000;stroke-width:1pt"
         transform="matrix(-0.4,0,0,-0.4,-4,0)"
         inkscape:connector-curvature="0" />
    </marker>
    <marker
       inkscape:stockid="Arrow1Mend"
       orient="auto"
       refY="0"
       refX="0"
       id="Arrow1Mend-1"
       style="overflow:visible">
      <path
         inkscape:connector-curvature="0"
         id="path3813-3"
         d="M 0,0 5,-5 -12.5,0 5,5 0,0 z"
         style="fill-rule:evenodd;stroke:#000000;stroke-width:1pt"
         transform="matrix(-0.4,0,0,-0.4,-4,0)" />
    </marker>
    <marker
       inkscape:stockid="Arrow1Mend"
       orient="auto"
       refY="0"
       refX="0"
       id="Arrow1Mend-16"
       style="overflow:visible">
      <path
         inkscape:connector-curvature="0"
         id="path3813-31"
         d="M 0,0 5,-5 -12.5,0 5,5 0,0 z"
         style="fill-rule:evenodd;stroke:#000000;stroke-width:1pt"
         transform="matrix(-0.4,0,0,-0.4,-4,0)" />
    </marker>
    <marker
       inkscape:stockid="Arrow1Mend"
       orient="auto"
       refY="0"
       refX="0"
       id="marker8010"
       style="overflow:visible">
      <path
         inkscape:connector-curvature="0"
         id="path8012"
         d="M 0,0 5,-5 -12.5,0 5,5 0,0 z"
         style="fill-rule:evenodd;stroke:#000000;stroke-width:1pt"
         transform="matrix(-0.4,0,0,-0.4,-4,0)" />
    </marker>
    <marker
       inkscape:stockid="Arrow1Mend"
       orient="auto"
       refY="0"
       refX="0"
       id="Arrow1Mend-3"
       style="overflow:visible">
      <path
         inkscape:connector-curvature="0"
         id="path3813-5"
         d="M 0,0 5,-5 -12.5,0 5,5 0,0 z"
         style="fill-rule:evenodd;stroke:#000000;stroke-width:1pt"
         transform="matrix(-0.4,0,0,-0.4,-4,0)" />
    </marker>
    <marker
       inkscape:stockid="Arrow1Mend"
       orient="auto"
       refY="0"
       refX="0"
       id="marker8104"
       style="overflow:visible">
      <path
         inkscape:connector-curvature="0"
         id="path8106"
         d="M 0,0 5,-5 -12.5,0 5,5 0,0 z"
         style="fill-rule:evenodd;stroke:#000000;stroke-width:1pt"
         transform="matrix(-0.4,0,0,-0.4,-4,0)" />
    </marker>
    <marker
       inkscape:stockid="Arrow1Mend"
       orient="auto"
       refY="0"
       refX="0"
       id="Arrow1Mend-7"
       style="overflow:visible">
      <path
         inkscape:connector-curvature="0"
         id="path3813-7"
         d="M 0,0 5,-5 -12.5,0 5,5 0,0 z"
         style="fill-rule:evenodd;stroke:#000000;stroke-width:1pt"
         transform="matrix(-0.4,0,0,-0.4,-4,0)" />
    </marker>
    <marker
       inkscape:stockid="Arrow1Mend"
       orient="auto"
       refY="0"
       refX="0"
       id="marker8198"
       style="overflow:visible">
      <path
         inkscape:connector-curvature="0"
         id="path8200"
         d="M 0,0 5,-5 -12.5,0 5,5 0,0 z"
         style="fill-rule:evenodd;stroke:#000000;stroke-width:1pt"
         transform="matrix(-0.4,0,0,-0.4,-4,0)" />
    </marker>
    <marker
       inkscape:stockid="Arrow1Mend"
       orient="auto"
       refY="0"
       refX="0"
       id="Arrow1Mend-6"
       style="overflow:visible">
      <path
         inkscape:connector-curvature="0"
         id="path3813-6"
         d="M 0,0 5,-5 -12.5,0 5,5 0,0 z"
         style="fill-rule:evenodd;stroke:#000000;stroke-width:1pt"
         transform="matrix(-0.4,0,0,-0.4,-4,0)" />
    </marker>
    <marker
       inkscape:stockid="Arrow1Mend"
       orient="auto"
       refY="0"
       refX="0"
       id="marker8278"
       style="overflow:visible">
      <path
         inkscape:connector-curvature="0"
         id="path8280"
         d="M 0,0 5,-5 -12.5,0 5,5 0,0 z"
         style="fill-rule:evenodd;stroke:#000000;stroke-width:1pt"
         transform="matrix(-0.4,0,0,-0.4,-4,0)" />
    </marker>
  </defs>
  <sodipodi:namedview
     id="base"
     pagecolor="#ffffff"
     bordercolor="#666666"
     borderopacity="1.0"
     inkscape:pageopacity="0.0"
     inkscape:pageshadow="2"
     inkscape:zoom="2.2510225"
     inkscape:cx="112.04727"
     inkscape:cy="37.626388"
     inkscape:document-units="px"
     inkscape:current-layer="layer1"
     showgrid="false"
     inkscape:window-width="1301"
     inkscape:window-height="744"
     inkscape:window-x="65"
     inkscape:window-y="24"
     inkscape:window-maximized="1"
     fit-margin-top="0"
     fit-margin-left="0"
     fit-margin-right="0"
     fit-margin-bottom="0" />
  <metadata
     id="metadata4733">
    <rdf:RDF>
      <cc:Work
         rdf:about="">
        <dc:format>image/svg+xml</dc:format>
        <dc:type
           rdf:resource="http://purl.org/dc/dcmitype/StillImage" />
        <dc:title></dc:title>
      </cc:Work>
    </rdf:RDF>
  </metadata>
  <g
     inkscape:label="Layer 1"
     inkscape:groupmode="layer"
     id="layer1"
     transform="translate(113.67415,-212.32954)">
    <g
       id="g7945"
       transform="translate(-165.00051,-200.88921)">
      <path
         transform="translate(46.451359,628.03125)"
         d="m 144.63747,-144.68906 c 0,38.45207 -31.17156,69.62363 -69.62363,69.62363 -38.452068,0 -69.623627,-31.17156 -69.623627,-69.62363 0,-38.45206 31.171559,-69.62362 69.623627,-69.62362 38.45207,0 69.62363,31.17156 69.62363,69.62362 z"
         sodipodi:ry="69.623627"
         sodipodi:rx="69.623627"
         sodipodi:cy="-144.68906"
         sodipodi:cx="75.01384"
         id="path7117"
         style="fill:#999999;fill-opacity:1;fill-rule:evenodd;stroke:#000000;stroke-opacity:1"
         sodipodi:type="arc" />
      <path
         sodipodi:end="0.78539816"
         sodipodi:start="0"
         transform="translate(46.439842,628.25415)"
         d="m 144.63747,-144.68906 c 0,18.46534 -7.33533,36.17438 -20.39229,49.231342 L 75.01384,-144.68906 z"
         sodipodi:ry="69.623627"
         sodipodi:rx="69.623627"
         sodipodi:cy="-144.68906"
         sodipodi:cx="75.01384"
         id="path7117-3"
         style="fill:#ffffff;fill-opacity:1;fill-rule:evenodd;stroke:none"
         sodipodi:type="arc" />
      <path
         sodipodi:end="0.78539816"
         sodipodi:start="0"
         transform="matrix(0,-1,1,0,266.49306,558.16599)"
         d="m 144.63747,-144.68906 c 0,18.46534 -7.33533,36.17438 -20.39229,49.231342 L 75.01384,-144.68906 z"
         sodipodi:ry="69.623627"
         sodipodi:rx="69.623627"
         sodipodi:cy="-144.68906"
         sodipodi:cx="75.01384"
         id="path7117-3-8"
         style="fill:#ffffff;fill-opacity:1;fill-rule:evenodd;stroke:none"
         sodipodi:type="arc" />
      <path
         sodipodi:end="0.78539816"
         sodipodi:start="0"
         transform="matrix(-1,0,0,-1,196.42158,338.3719)"
         d="m 144.63747,-144.68906 c 0,18.46534 -7.33533,36.17438 -20.39229,49.231342 L 75.01384,-144.68906 z"
         sodipodi:ry="69.623627"
         sodipodi:rx="69.623627"
         sodipodi:cy="-144.68906"
         sodipodi:cx="75.01384"
         id="path7117-3-8-3"
         style="fill:#ffffff;fill-opacity:1;fill-rule:evenodd;stroke:none"
         sodipodi:type="arc" />
      <path
         sodipodi:end="0.78539816"
         sodipodi:start="0"
         transform="matrix(0,1,-1,0,-23.15773,408.73317)"
         d="m 144.63747,-144.68906 c 0,18.46534 -7.33533,36.17438 -20.39229,49.231342 L 75.01384,-144.68906 z"
         sodipodi:ry="69.623627"
         sodipodi:rx="69.623627"
         sodipodi:cy="-144.68906"
         sodipodi:cx="75.01384"
         id="path7117-3-8-3-4"
         style="fill:#ffffff;fill-opacity:1;fill-rule:evenodd;stroke:none"
         sodipodi:type="arc" />
    </g>
    <path
       style="fill:none;stroke:#000000;stroke-width:1px;stroke-linecap:butt;stroke-linejoin:miter;stroke-opacity:1;marker-end:url(#Arrow1Mend)"
       d="m 58.63417,282.41843 -29.32369,0"
       id="path7759"
       inkscape:connector-curvature="0" />
    <text
       xml:space="preserve"
       style="font-size:22px;font-style:normal;font-weight:normal;line-height:125%;letter-spacing:0px;word-spacing:0px;fill:#000000;fill-opacity:1;stroke:none;font-family:Sans"
       x="42.695168"
       y="280.8454"
       id="text7952"
       sodipodi:linespacing="125%"><tspan
         sodipodi:role="line"
         id="tspan7954"
         x="42.695168"
         y="280.8454">A</tspan></text>
    <path
       style="fill:none;stroke:#000000;stroke-width:1px;stroke-linecap:butt;stroke-linejoin:miter;stroke-opacity:1;marker-end:url(#Arrow1Mend)"
       d="M 50.091268,321.14739 22.999712,309.9257"
       id="path7759-5"
       inkscape:connector-curvature="0" />
    <text
       xml:space="preserve"
       style="font-size:22px;font-style:normal;font-weight:normal;line-height:125%;letter-spacing:0px;word-spacing:0px;fill:#000000;fill-opacity:1;stroke:none;font-family:Sans"
       x="-276.21942"
       y="168.58235"
       id="text7980"
       sodipodi:linespacing="125%"
       transform="matrix(0.38268343,-0.92387953,0.92387953,0.38268343,0,0)"><tspan
         sodipodi:role="line"
         id="tspan7982"
         x="-276.21942"
         y="168.58235">B</tspan></text>
  </g>
</svg>
